<svg xmlns="http://www.w3.org/2000/svg" width="1939" height="203"><path fill="#FED0E2" d="M562.055 3.32c5.124 4.425 7.27 10.558 9.695 16.68 8.205 19.953 20.334 36.526 35.25 52l2.008 2.164c27.304 28.675 69.681 45.789 108.875 47.023 39.955.75 80.17-12.11 110.117-39.187a628.345 628.345 0 0 0 5.563-5.688c9.448-9.596 19.399-14.327 32.875-14.75 7.602.17 15.06 1.087 20.742 6.524 2.404 3.848 3.002 7.425 3.758 11.852 5.116 26.554 18.291 49.149 40.785 64.69 19.393 12.871 41.975 19.872 65.328 15.75 13.272-3.152 25.658-9.446 35.949-18.378l3-2.25c14.936-12.66 22.829-30.688 27-49.313 1.402-6.093 2.978-10.503 8-14.437l1.707-1.375c9.392-6.644 21.006-8.839 32.293-7.625 6.575 1.352 11.722 3.776 15.703 9.41l1.547 2.653c18.402 29.838 49.682 50.42 83.367 58.937 29.764 7.04 60.964 2.196 87.383-13l3.043-1.75c11.533-7.027 21.8-15.917 30.332-26.375 7.625-8.74 17.622-11.907 28.914-13.121 7.823-.265 14.545 1.414 20.711 6.246 1.937 2.372 3.551 4.914 5.188 7.5 18.801 28.354 48.303 44.318 81.132 51.477 19.34 3.803 40.54 3.901 59.68-.977l1.995-.504c19.288-5.023 35.267-14.402 49.13-28.746 5.124-5.293 9.77-9.34 16.875-11.75l2.004-.723c8.876-2.707 18.547-2.013 26.996 1.723 4.746 2.82 8.648 6.585 12.688 10.313 19.105 17.337 43.393 28.476 68.124 35.062l2.708.724c12.702 3.19 25.473 4.293 38.543 4.276h2.018c12.277-.04 24.008-1.314 35.919-4.375l2.04-.519c18.659-4.987 35.84-14.657 50.96-26.481l1.795-1.395c22.276-17.512 38.21-40.787 47.892-67.355 3.418-9.233 6.92-13.786 15.938-18.125 9.012-3.9 21.538-5.19 31-1.938 4.084 2.194 8.234 4.53 10.375 8.813 1.919 12.008-2.87 21.468-8 32l-1.2 2.482c-5.337 10.91-11.36 20.92-18.8 30.518l-2.207 2.848c-8.076 10.112-16.75 19.957-26.793 28.152l-3.45 2.922c-47.532 39.913-108.693 58.603-170.425 53.39-37.446-3.616-79.48-14.956-109.082-39.328-2.036-1.247-2.036-1.247-4.375-.418-3.261 1.753-6.406 3.66-9.543 5.621-48.124 29.198-109.171 34.122-163.188 21.125-28.206-7.172-54.072-20.431-75.019-40.765-1.897-1.86-1.897-1.86-4.918-1.547a121.157 121.157 0 0 0-5.75 3.75c-27.768 18.379-59.99 30.306-93.25 33.25l-3.71.332C1192.02 184.987 1144.03 174.06 1106 145a571.105 571.105 0 0 0-4.188-3l-2.812-2-4.063 4.5-2.511 2.777c-1.984 2.227-3.896 4.491-5.801 6.786-4.347 4.961-9.422 8.91-14.625 12.937l-1.592 1.277c-32.43 25.99-74.679 38.11-115.935 34.258C924.588 199.23 897.943 187.36 875 168c-.81-.675-1.622-1.35-2.457-2.047C859.711 154.88 849.369 141.268 842 126l-2.395 1.434C812.878 143.104 783.55 153.727 753 159l-2.557.483C694.63 169.835 635.01 157.64 588 126c-8.38-5.825-16.373-12.035-23.844-18.996-2.003-1.862-4.062-3.621-6.156-5.379-4.378-3.78-8.112-8.11-11.898-12.465L544 87h-2c-1.186 1.517-2.297 3.093-3.375 4.688C522.82 113.912 501.057 130.55 477 143l-1.817.948c-42.79 22-92.353 24.237-137.89 10.219-21.1-6.915-41.603-17.439-58.293-32.167l-2.652-2.32C262.923 107.769 262.923 107.769 259 102c-4.318 1.568-8.17 3.76-12.125 6.063-32.303 18.361-66.838 27.425-104 27.25l-2.446-.006c-12.998-.05-25.664-.674-38.429-3.307l-2.536-.52C75.109 126.293 50.41 116.937 31 101l-1.527-1.217C2.303 78.12 2.303 78.12-.125 64.437-.332 59.487.988 55.907 4 52c8.432-8.723 20.828-13.012 32.813-13.25C44.148 38.838 50.727 40.728 56 46c1.731 2.144 3.406 4.328 5.082 6.516 18.076 23.414 46.99 36.35 75.904 40.234C167.322 96.51 199.872 91.13 224.5 72c6.496-5.571 12.395-11.471 17.625-18.25C247.755 46.587 253.259 43.38 262 41l2.438-.688c9.462-1.154 18.736-.545 26.625 5.313 4.46 4.21 6.864 9.557 9.582 14.966C303.757 66.74 307.405 71.85 312 77l2.008 2.438c18.402 21.729 48.35 37.47 76.586 41.316 13.746.993 27.044.895 40.406-2.754l3.055-.809C461.188 109.094 483.536 88.437 497 64c6.247-11.702 10.065-23.538 12.033-36.698 1.333-8.723 3.104-14.259 10.006-19.997 11.8-8.632 29.9-11.177 43.016-3.985Z"/></svg>